#!OML:ASF F:\VICON\USERDATA\INSTALL\rory3\rory3.ASF
:FULLY-SPECIFIED
:DEGREES
129
root -2.45779 18.1778 -0.679286 -6.98289 -42.6876 5.74513
lowerback 2.67051 2.70189 0.753283
upperback 1.21315 3.61449 -0.156323
thorax -0.194769 1.80862 -0.679808
lowerneck -7.81737 -4.95128 -5.30732
upperneck 34.4252 -12.6734 15.7486
head 14.6815 -4.64219 5.51309
rclavicle 8.77879e-014 4.77083e-015
rhumerus 40.6124 9.8219 -81.2879
rradius 84.5054
rwrist -76.2834
rhand -20.4698 -8.63494
rfingers 7.12502
rthumb 5.88622 -38.5332
lclavicle 8.77879e-014 4.77083e-015
lhumerus 24.063 19.0452 68.2535
lradius 96.0706
lwrist 86.7676
lhand -8.77622 22.911
lfingers 7.12502
lthumb 17.1618 52.1731
rfemur -8.16068 11.2528 17.3697
rtibia 43.5295
rfoot -26.4406 -18.9449
rtoes -9.89505
lfemur -13.8378 -1.70613 -14.325
ltibia 42.4712
lfoot -11.618 -0.189511
ltoes -13.119
130
root -2.48522 18.2006 -0.69509 -7.08156 -43.2515 6.00423
lowerback 2.96874 2.92167 0.629617
upperback 1.15168 3.90527 -0.28849
thorax -0.418284 1.95264 -0.772642
lowerneck -7.93143 -5.11594 -4.92707
upperneck 34.436 -12.9187 15.4909
head 14.7015 -4.72004 5.28628
rclavicle -9.29085e-015 4.77083e-015
rhumerus 40.0018 8.86828 -82.3592
rradius 86.236
rwrist -72.76
rhand -17.9377 -8.00928
rfingers 7.12502
rthumb 8.33047 -37.825
lclavicle -9.29085e-015 4.77083e-015
lhumerus 23.0195 18.9865 68.3136
lradius 99.0133
lwrist 86.4249
lhand -7.42182 22.8351
lfingers 7.12502
lthumb 18.4651 51.9787
rfemur -8.19457 11.1893 17.1921
rtibia 43.1858
rfoot -26.3725 -18.4099
rtoes -9.37617
lfemur -13.8996 -1.63471 -14.307
ltibia 42.6193
lfoot -11.2062 -0.107113
ltoes -13.1933
131
root -2.51217 18.2114 -0.712248 -6.96024 -43.8226 5.99072
lowerback 2.97232 3.02134 0.747143
upperback 1.1431 4.04121 -0.319244
thorax -0.416285 2.02091 -0.87374
lowerneck -7.69243 -5.05141 -4.93319
upperneck 34.2854 -12.8002 15.5265
head 14.5569 -4.68444 5.31647
rclavicle 5.11405e-014 -7.15625e-015
rhumerus 39.4457 8.44597 -83.3083
rradius 87.5083
rwrist -69.8485
rhand -15.4557 -3.25064
rfingers 7.12502
rthumb 10.7252 -32.9569
lclavicle 5.11405e-014 -7.15625e-015
lhumerus 21.8958 19.1725 68.1841
lradius 102.031
lwrist 86.2399
lhand -6.55087 22.9063
lfingers 7.12502
lthumb 19.3027 51.9683
rfemur -8.31264 11.2265 17.2662
rtibia 42.9376
rfoot -26.3757 -18.012
rtoes -8.95715
lfemur -14.1194 -1.38423 -14.0006
ltibia 42.9171
lfoot -10.8149 -0.325487
ltoes -13.3131
132
root -2.53175 18.1993 -0.734778 -6.62411 -44.3309 5.73191
lowerback 3.13373 3.10919 0.956193
upperback 1.01121 4.16685 -0.253419
thorax -0.628961 2.08219 -0.94101
lowerneck -7.40546 -4.99022 -5.0037
upperneck 34.2172 -12.653 15.4613
head 14.4298 -4.655 5.32553
rclavicle -9.58204e-016 -1.19271e-014
rhumerus 38.753 7.90602 -84.2141
rradius 88.7963
rwrist -67.2824
rhand -13.4312 -0.578641
rfingers 7.12502
rthumb 12.6775 -30.1739
lclavicle -9.58204e-016 -1.19271e-014
lhumerus 20.6081 19.2179 67.9438
lradius 105.166
lwrist 86.2085
lhand -6.21435 23.1737
lfingers 7.12502
lthumb 19.6263 52.203
rfemur -8.52292 11.2914 17.5439
rtibia 42.7714
rfoot -26.4417 -17.7573
rtoes -8.70631
lfemur -14.5051 -0.947747 -13.4379
ltibia 43.2999
lfoot -10.2376 -0.907471
ltoes -12.7654
133
root -2.54919 18.1943 -0.753802 -6.11327 -44.8302 5.25318
lowerback 3.32189 3.17241 1.32651
upperback 0.864251 4.26746 -0.121842
thorax -0.865321 2.12981 -1.03262
lowerneck -7.3176 -4.96645 -5.1175
upperneck 34.227 -12.5464 15.3304
head 14.3894 -4.64246 5.3083
rclavicle 7.94517e-015 4.77083e-015
rhumerus 38.0575 7.3247 -85.0744
rradius 90.0187
rwrist -65.1922
rhand -11.4165 0.722552
rfingers 7.12502
rthumb 14.6192 -28.7422
lclavicle 7.94517e-015 4.77083e-015
lhumerus 19.0134 19.2129 67.6965
lradius 108.313
lwrist 86.2733
lhand -5.81958 22.9899
lfingers 7.12502
lthumb 20.0058 51.98
rfemur -8.74653 11.4488 18.0203
rtibia 42.6066
rfoot -26.3739 -17.7421
rtoes -8.81422
lfemur -14.8694 -0.591864 -12.7517
ltibia 43.6835
lfoot -9.70815 -1.34564
ltoes -12.2096
